<svg id="wave" style="transform:rotate(0deg); transition: 0.3s" viewBox="0 0 1440 230" version="1.1" xmlns="http://www.w3.org/2000/svg"><defs><linearGradient id="sw-gradient-0" x1="0" x2="0" y1="1" y2="0"><stop stop-color="rgba(255, 59, 34, 1)" offset="0%"></stop><stop stop-color="rgba(255, 59, 34, 1)" offset="100%"></stop></linearGradient></defs><path style="transform:translate(0, 0px); opacity:1" fill="url(#sw-gradient-0)" d="M0,138L60,145.7C120,153,240,169,360,164.8C480,161,600,138,720,115C840,92,960,69,1080,72.8C1200,77,1320,107,1440,130.3C1560,153,1680,169,1800,161C1920,153,2040,123,2160,103.5C2280,84,2400,77,2520,95.8C2640,115,2760,161,2880,172.5C3000,184,3120,161,3240,126.5C3360,92,3480,46,3600,46C3720,46,3840,92,3960,126.5C4080,161,4200,184,4320,184C4440,184,4560,161,4680,153.3C4800,146,4920,153,5040,161C5160,169,5280,176,5400,172.5C5520,169,5640,153,5760,138C5880,123,6000,107,6120,95.8C6240,84,6360,77,6480,69C6600,61,6720,54,6840,49.8C6960,46,7080,46,7200,49.8C7320,54,7440,61,7560,57.5C7680,54,7800,38,7920,30.7C8040,23,8160,23,8280,23C8400,23,8520,23,8580,23L8640,23L8640,230L8580,230C8520,230,8400,230,8280,230C8160,230,8040,230,7920,230C7800,230,7680,230,7560,230C7440,230,7320,230,7200,230C7080,230,6960,230,6840,230C6720,230,6600,230,6480,230C6360,230,6240,230,6120,230C6000,230,5880,230,5760,230C5640,230,5520,230,5400,230C5280,230,5160,230,5040,230C4920,230,4800,230,4680,230C4560,230,4440,230,4320,230C4200,230,4080,230,3960,230C3840,230,3720,230,3600,230C3480,230,3360,230,3240,230C3120,230,3000,230,2880,230C2760,230,2640,230,2520,230C2400,230,2280,230,2160,230C2040,230,1920,230,1800,230C1680,230,1560,230,1440,230C1320,230,1200,230,1080,230C960,230,840,230,720,230C600,230,480,230,360,230C240,230,120,230,60,230L0,230Z"></path></svg>