<svg width="18" height="18" viewBox="0 0 18 18" fill="none" xmlns="http://www.w3.org/2000/svg">
<g clip-path="url(#clip0_185_1014)">
<path d="M9.18359 7.36377V10.8492H14.1261C13.9091 11.9702 13.2578 12.9193 12.281 13.5575L15.2615 15.8239C16.9981 14.253 17.9999 11.9457 17.9999 9.20478C17.9999 8.5666 17.9415 7.95291 17.8329 7.36387L9.18359 7.36377Z" fill="#4285F4"/>
<path d="M4.03679 10.7129L3.36457 11.2172L0.985107 13.0335C2.49624 15.9708 5.59343 17.9999 9.18341 17.9999C11.663 17.9999 13.7418 17.1981 15.2613 15.8236L12.2808 13.5572C11.4626 14.0972 10.419 14.4245 9.18341 14.4245C6.79565 14.4245 4.76694 12.8454 4.04054 10.7181L4.03679 10.7129Z" fill="#34A853"/>
<path d="M0.985092 4.96631C0.358963 6.17717 0 7.54356 0 8.99991C0 10.4563 0.358963 11.8227 0.985092 13.0335C0.985092 13.0416 4.04082 10.7099 4.04082 10.7099C3.85715 10.1699 3.74858 9.59717 3.74858 8.99982C3.74858 8.40246 3.85715 7.82977 4.04082 7.28977L0.985092 4.96631Z" fill="#FBBC05"/>
<path d="M9.1836 3.58365C10.5361 3.58365 11.7383 4.04183 12.6985 4.92548L15.3283 2.34823C13.7337 0.891879 11.6632 0 9.1836 0C5.59362 0 2.49624 2.02092 0.985107 4.9664L4.04074 7.29005C4.76705 5.16274 6.79584 3.58365 9.1836 3.58365Z" fill="#EA4335"/>
</g>
<defs>
<clipPath id="clip0_185_1014">
<rect width="18" height="18" fill="white"/>
</clipPath>
</defs>
</svg>
