<svg width="14" height="14" viewBox="0 0 14 14" fill="none" xmlns="http://www.w3.org/2000/svg">
<path d="M2.23859 0.749674C2.23859 0.639168 2.28261 0.533187 2.36098 0.455047C2.43934 0.376907 2.54562 0.333008 2.65644 0.333008H11.0134C11.1242 0.333008 11.2305 0.376907 11.3088 0.455047C11.3872 0.533187 11.4312 0.639168 11.4312 0.749674C11.4312 1.19801 11.4212 1.62467 11.4028 2.02967C11.733 2.0842 12.0489 2.20411 12.3319 2.38232C12.6149 2.56054 12.8593 2.79346 13.0506 3.06735C13.2419 3.34123 13.3762 3.65054 13.4457 3.97703C13.5152 4.30352 13.5184 4.64058 13.4552 4.96833C13.392 5.29608 13.2636 5.60789 13.0776 5.88537C12.8916 6.16285 12.6517 6.40039 12.3722 6.58396C12.0927 6.76754 11.7791 6.89344 11.45 6.95425C11.1209 7.01505 10.7829 7.00953 10.456 6.93801C9.79578 8.49217 8.88654 9.25217 8.08845 9.44717V11.258L9.27932 11.5547C9.44144 11.5947 9.59437 11.6672 9.72809 11.7672L11.2641 12.9163C11.3343 12.9688 11.3861 13.042 11.4122 13.1254C11.4384 13.2089 11.4375 13.2985 11.4098 13.3814C11.3821 13.4644 11.3288 13.5366 11.2577 13.5877C11.1866 13.6388 11.1011 13.6663 11.0134 13.6663H2.65644C2.56874 13.6663 2.48326 13.6388 2.41212 13.5877C2.34097 13.5366 2.28777 13.4644 2.26003 13.3814C2.2323 13.2985 2.23145 13.2089 2.2576 13.1254C2.28375 13.042 2.33557 12.9688 2.40573 12.9163L3.94174 11.7672C4.07545 11.6672 4.22838 11.5947 4.3905 11.5547L5.58137 11.258V9.44717C4.78328 9.25217 3.87405 8.49217 3.21385 6.93717C2.88674 7.00909 2.54851 7.01491 2.21911 6.95429C1.88972 6.89368 1.57584 6.76786 1.29602 6.58427C1.0162 6.40067 0.776116 6.16303 0.589938 5.88537C0.403761 5.6077 0.275268 5.29565 0.21205 4.96764C0.148831 4.63964 0.152168 4.30232 0.221864 3.97562C0.29156 3.64892 0.426201 3.33946 0.617836 3.06551C0.80947 2.79157 1.05421 2.55869 1.33761 2.38064C1.62101 2.20258 1.93731 2.08296 2.26784 2.02884C2.24817 1.60274 2.23841 1.17623 2.23859 0.749674ZM2.32132 2.86634C1.88525 2.94591 1.49873 3.19495 1.2468 3.5587C0.994864 3.92244 0.898156 4.37108 0.977946 4.80592C1.05774 5.24077 1.30749 5.6262 1.67226 5.87742C2.03704 6.12864 2.48695 6.22507 2.92303 6.14551C2.64474 5.27051 2.43164 4.19051 2.32132 2.86634ZM10.7476 6.14551C11.1837 6.22507 11.6336 6.12864 11.9984 5.87742C12.3632 5.6262 12.6129 5.24077 12.6927 4.80592C12.7725 4.37108 12.6758 3.92244 12.4239 3.5587C12.1719 3.19495 11.7854 2.94591 11.3493 2.86634C11.2382 4.19134 11.0251 5.27051 10.7476 6.14551Z" fill="#FF3B22"/>
<path d="M5.61428 6.98224C5.50706 7.04091 5.3854 6.9381 5.40706 6.80684L5.63762 5.40541L4.65901 4.41107C4.56762 4.31804 4.61512 4.14797 4.73762 4.1296L6.09817 3.92338L6.70484 2.64135C6.75956 2.5258 6.90761 2.5258 6.96234 2.64135L7.569 3.92338L8.92955 4.1296C9.05205 4.14797 9.09955 4.31804 9.00789 4.41107L8.02956 5.40541L8.26011 6.80684C8.28178 6.9381 8.16011 7.04091 8.05289 6.98224L6.83317 6.31382L5.61428 6.98224Z" fill="#80678A"/>
</svg>
