
<svg width="15" height="76" viewBox="0 0 15 76" fill="none" xmlns="http://www.w3.org/2000/svg">
<mask id="path-1-inside-1_1389_4230" fill="white">
<path fill-rule="evenodd" clip-rule="evenodd" d="M6.03891 0.202637C2.25673 3.21071 0 7.80672 0 12.7241V62.6804C0 67.5977 2.25673 72.1938 6.03891 75.2018V74.6442C6.03891 72.8351 6.28436 71.0344 6.76855 69.2913L14.0564 43.0551C15.0292 39.5528 15.0292 35.8516 14.0564 32.3494L6.76855 6.11319C6.28436 4.37011 6.03891 2.56939 6.03891 0.760309V0.202637Z"/>
</mask>
<path fill-rule="evenodd" clip-rule="evenodd" d="M6.03891 0.202637C2.25673 3.21071 0 7.80672 0 12.7241V62.6804C0 67.5977 2.25673 72.1938 6.03891 75.2018V74.6442C6.03891 72.8351 6.28436 71.0344 6.76855 69.2913L14.0564 43.0551C15.0292 39.5528 15.0292 35.8516 14.0564 32.3494L6.76855 6.11319C6.28436 4.37011 6.03891 2.56939 6.03891 0.760309V0.202637Z" fill="url(#paint0_linear_1389_4230)"/>
<path d="M6.03891 0.202637H7.03891V-1.8704L5.41644 -0.580012L6.03891 0.202637ZM6.03891 75.2018L5.41644 75.9845L7.03891 77.2749V75.2018H6.03891ZM6.76855 69.2913L7.73207 69.5589H7.73207L6.76855 69.2913ZM14.0564 43.0551L13.0929 42.7875V42.7875L14.0564 43.0551ZM14.0564 32.3494L15.0199 32.0817L14.0564 32.3494ZM6.76855 6.11319L7.73207 5.84554H7.73207L6.76855 6.11319ZM1 12.7241C1 8.1142 3.11562 3.80533 6.66137 0.985286L5.41644 -0.580012C1.39784 2.6161 -1 7.49925 -1 12.7241H1ZM1 62.6804V12.7241H-1V62.6804H1ZM6.66137 74.4192C3.11562 71.5992 1 67.2903 1 62.6804H-1C-1 67.9052 1.39784 72.7884 5.41644 75.9845L6.66137 74.4192ZM7.03891 75.2018V74.6442H5.03891V75.2018H7.03891ZM7.03891 74.6442C7.03891 72.9255 7.27209 71.2149 7.73207 69.5589L5.80503 69.0237C5.29663 70.8539 5.03891 72.7446 5.03891 74.6442H7.03891ZM7.73207 69.5589L15.0199 43.3228L13.0929 42.7875L5.80503 69.0237L7.73207 69.5589ZM15.0199 43.3228C16.0414 39.6454 16.0414 35.7591 15.0199 32.0817L13.0929 32.617C14.0171 35.9442 14.0171 39.4603 13.0929 42.7875L15.0199 43.3228ZM15.0199 32.0817L7.73207 5.84554L5.80503 6.38083L13.0929 32.617L15.0199 32.0817ZM7.73207 5.84554C7.27209 4.18962 7.03891 2.47893 7.03891 0.760309H5.03891C5.03891 2.65984 5.29663 4.5506 5.80503 6.38083L7.73207 5.84554ZM7.03891 0.760309V0.202637H5.03891V0.760309H7.03891Z" fill="white" fill-opacity="0.4" style="mix-blend-mode:overlay" mask="url(#path-1-inside-1_1389_4230)"/>
<defs>
<linearGradient id="paint0_linear_1389_4230" x1="55.1551" y1="41.757" x2="14.5472" y2="85.6643" gradientUnits="userSpaceOnUse">
<stop stop-color="#C441F4"/>
<stop offset="1" stop-color="#00DAEA"/>
</linearGradient>
</defs>
</svg>